<?xml version="1.0" encoding="utf-8"?>
<!-- Generator: Adobe Illustrator 27.5.0, SVG Export Plug-In . SVG Version: 6.00 Build 0)  -->
<svg version="1.1" xmlns="http://www.w3.org/2000/svg" xmlns:xlink="http://www.w3.org/1999/xlink" x="0px" y="0px"
	 viewBox="0 0 500 500" style="enable-background:new 0 0 500 500;" xml:space="preserve">
<g id="Background_Simple">
	<g>
		<path style="fill:#92E3A9;" d="M417.691,51.838c-30.447-18.935-66.955-21.013-99.115-5.232
			c-27.382,13.436-48.691,36.165-76.119,49.568c-37.51,18.329-78.587,28.346-116.464,45.902
			c-37.877,17.556-74.123,45.083-87.705,84.56c-16.043,46.632-10.376,101.466,14.096,144.099
			c39.773,69.291,118.678,93.892,194.632,92.996C407.534,461.837,490.207,267.436,464,127.771
			C458.312,97.456,444.371,68.431,417.691,51.838z"/>
		<path style="opacity:0.7;fill:#FFFFFF;" d="M417.691,51.838c-30.447-18.935-66.955-21.013-99.115-5.232
			c-27.382,13.436-48.691,36.165-76.119,49.568c-37.51,18.329-78.587,28.346-116.464,45.902
			c-37.877,17.556-74.123,45.083-87.705,84.56c-16.043,46.632-10.376,101.466,14.096,144.099
			c39.773,69.291,118.678,93.892,194.632,92.996C407.534,461.837,490.207,267.436,464,127.771
			C458.312,97.456,444.371,68.431,417.691,51.838z"/>
	</g>
</g>
<g id="Graphics">
	<g>
		<polygon style="fill:none;stroke:#92E3A9;stroke-linecap:round;stroke-linejoin:round;stroke-miterlimit:10;" points="
			120.607,310.274 112.214,311.794 110.565,302.69 100.584,304.497 102.232,313.601 93.84,315.121 95.71,325.449 104.103,323.93 
			105.751,333.033 115.733,331.226 114.084,322.122 122.477,320.602 		"/>
		<polygon style="fill:none;stroke:#92E3A9;stroke-linecap:round;stroke-linejoin:round;stroke-miterlimit:10;" points="
			204.465,170.874 196.423,168.033 199.504,159.309 189.939,155.931 186.858,164.654 178.815,161.814 175.32,171.711 
			183.362,174.551 180.281,183.275 189.845,186.654 192.927,177.93 200.969,180.771 		"/>
		<polygon style="fill:none;stroke:#92E3A9;stroke-linecap:round;stroke-linejoin:round;stroke-miterlimit:10;" points="
			407.506,275.086 399.968,279.076 395.639,270.899 386.674,275.644 391.002,283.821 383.464,287.811 388.374,297.088 
			395.913,293.098 400.241,301.275 409.206,296.53 404.878,288.353 412.417,284.362 		"/>
		
			<circle style="fill:none;stroke:#92E3A9;stroke-linecap:round;stroke-linejoin:round;stroke-miterlimit:10;" cx="85.529" cy="282.47" r="6.12"/>
		<path style="fill:none;stroke:#92E3A9;stroke-linecap:round;stroke-linejoin:round;stroke-miterlimit:10;" d="M180.858,200.652
			c0,0.894-0.725,1.618-1.618,1.618c-0.894,0-1.618-0.725-1.618-1.618c0-0.894,0.725-1.618,1.618-1.618
			C180.133,199.033,180.858,199.758,180.858,200.652z"/>
		<path style="fill:none;stroke:#92E3A9;stroke-linecap:round;stroke-linejoin:round;stroke-miterlimit:10;" d="M106.733,172.861
			c0,3.161-2.563,5.724-5.724,5.724c-3.161,0-5.724-2.563-5.724-5.724c0-3.161,2.563-5.724,5.724-5.724
			C104.17,167.137,106.733,169.7,106.733,172.861z"/>
		<path style="fill:none;stroke:#92E3A9;stroke-linecap:round;stroke-linejoin:round;stroke-miterlimit:10;" d="M358.761,250.342
			c0,1.788-1.45,3.238-3.238,3.238c-1.788,0-3.238-1.45-3.238-3.238c0-1.789,1.45-3.239,3.238-3.239
			C357.311,247.103,358.761,248.553,358.761,250.342z"/>
		
			<circle style="fill:none;stroke:#92E3A9;stroke-linecap:round;stroke-linejoin:round;stroke-miterlimit:10;" cx="326.009" cy="144.338" r="7.248"/>
	</g>
</g>
<g id="Character">
	<g>
		<path style="fill:#FFFFFF;" d="M281.368,209.506c0.386,0.579,11.855,2.862,17.799,11.511c5.944,8.649,8.664,15.912,8.664,15.912
			s9.95,5.919,15.049,10.802s11.179,11.36,15.874,14.762c4.695,3.402,14.331,9.849,16.768,17.402c0,0-14.471,39.624-18.558,48.382
			c-4.087,8.758-14.188,27.35-14.188,27.35l-17.958,76.473H200.372l-3.563-26.231c0,0-31.956-6.277-45.37-17.977
			c0,0-1.262-28.986,4.334-54.876c5.596-25.89,24.598-79.654,37.476-96.084c0,0,20.575-9.844,38.72-13.04
			c0,0,11.778-9.308,19.495-10.303C259.181,212.592,281.368,209.506,281.368,209.506z"/>
		<g>
			<path style="fill:#92E3A9;" d="M198.221,417.689c9.266,1.767,17.352,3.302,26.785,3.194c9.433-0.108,19.08-2.231,26.806-7.643
				c1.586-1.111,3.132-2.378,4.996-2.901c4.103-1.152,8.161,1.56,12.231,2.823c5.161,1.601,10.824,0.836,15.877-1.079
				c5.053-1.915,9.61-4.916,14.12-7.893c-0.672,9.197-0.887,18.428-0.643,27.647l6.426,0.263l16.474-72.473
				c0,0-28.173,32.726-41.906,42.495l-26.334-6.78c0,0-2.486,2.063-7.704,3.101c0,0-2.391,9.191-15.826,9.208
				c-13.436,0.017-32.714-1.781-32.714-1.781L198.221,417.689z"/>
			<path style="opacity:0.5;fill:#FFFFFF;" d="M198.221,417.689c9.266,1.767,17.352,3.302,26.785,3.194
				c9.433-0.108,19.08-2.231,26.806-7.643c1.586-1.111,3.132-2.378,4.996-2.901c4.103-1.152,8.161,1.56,12.231,2.823
				c5.161,1.601,10.824,0.836,15.877-1.079c5.053-1.915,9.61-4.916,14.12-7.893c-0.672,9.197-0.887,18.428-0.643,27.647l6.426,0.263
				l16.474-72.473c0,0-28.173,32.726-41.906,42.495l-26.334-6.78c0,0-2.486,2.063-7.704,3.101c0,0-2.391,9.191-15.826,9.208
				c-13.436,0.017-32.714-1.781-32.714-1.781L198.221,417.689z"/>
		</g>
		<g>
			<path style="fill:#92E3A9;" d="M171.235,282.47c0,0-12.255,59.368-11.613,79.764c0,0,16.614-4.662,28.215,0
				c0,0-19.736-2.203-28.239,6.848c-8.503,9.051,17.66,32.826,70.011,28.003c0,0,10.444,3.28,15.741,1.357
				c0,0-1.422,9.455-15.826,9.208c-14.352-0.573-56.335-0.922-78.084-19.758C151.439,387.892,148.704,333.307,171.235,282.47z"/>
			<path style="opacity:0.6;fill:#FFFFFF;" d="M171.235,282.47c0,0-12.255,59.368-11.613,79.764c0,0,16.614-4.662,28.215,0
				c0,0-19.736-2.203-28.239,6.848c-8.503,9.051,17.66,32.826,70.011,28.003c0,0,10.444,3.28,15.741,1.357
				c0,0-1.422,9.455-15.826,9.208c-14.352-0.573-56.335-0.922-78.084-19.758C151.439,387.892,148.704,333.307,171.235,282.47z"/>
		</g>
		<g>
			<path style="fill:#92E3A9;" d="M196.236,293.848c0,0,3.615,26.287,9.442,31.787s33.033,3.71,43.766,9.631
				c0,0,10.124-17.544,28.445-28.53l-24.837,39.118l-21.474-5.079l-26.211-4.045l-2.201,5.058l-3.94-0.033
				C199.226,341.757,198.785,313.783,196.236,293.848z"/>
			<path style="opacity:0.5;fill:#FFFFFF;" d="M196.236,293.848c0,0,3.615,26.287,9.442,31.787s33.033,3.71,43.766,9.631
				c0,0,10.124-17.544,28.445-28.53l-24.837,39.118l-21.474-5.079l-26.211-4.045l-2.201,5.058l-3.94-0.033
				C199.226,341.757,198.785,313.783,196.236,293.848z"/>
		</g>
		<g>
			<path style="fill:#92E3A9;" d="M298.933,240.295c11.225,6.611,12.484,14.064,14.801,19.385
				c-5.84,1.157-11.882,2.399-16.705,5.889c-6.035,4.367-9.251,11.577-11.767,18.589c-2.38,6.631-4.377,13.399-5.979,20.259
				c5.39-9.762,13.177-18.19,22.484-24.333c5.396-3.562,12.056-6.432,18.201-4.42c-5.157,2.182-10.988,5.151-12.083,10.643
				c-0.183,0.915-0.212,1.885,0.102,2.765c0.924,2.588,4.145,3.287,6.588,4.547c4.756,2.455,7.231,8.038,7.448,13.386
				c0.217,5.348-1.438,10.574-3.074,15.669c-1.431,4.458-2.863,8.916-4.294,13.374c-1.831,5.702-3.699,11.484-7.002,16.479
				c-3.303,4.995-8.282,9.189-14.188,10.177c-2.466,0.412-5.078,0.238-7.339-0.829c-1.792-0.846-3.282-2.202-4.822-3.449
				c-7.04-5.705-15.668-9.43-24.648-10.643c11.624,7.678,17.12,21.625,21.942,34.694c-2.198-3.852-5.421-7.113-9.245-9.358
				c-1.031-0.605-2.175-1.152-3.366-1.057c-3.152,0.253-4.154,4.274-6.061,6.797c-2.274,3.01-6.443,4.071-10.186,3.596
				c-3.743-0.475-7.184-2.232-10.536-3.961c-14.172-7.309-28.344-14.617-42.515-21.926l-3.04,9c0,0,33.862,26.987,85.738,36.554
				c0,0,33.707-26.635,45.642-50.24c11.935-23.605,30.493-71.987,30.493-71.987s-6.793-12.86-18.437-19.577
				c0,0-8.686-4.107-10.516-9.188c-1.831-5.08-18.163-13.849-18.163-13.849S310.546,242.647,298.933,240.295z"/>
			<path style="opacity:0.6;fill:#FFFFFF;" d="M298.933,240.295c11.225,6.611,12.484,14.064,14.801,19.385
				c-5.84,1.157-11.882,2.399-16.705,5.889c-6.035,4.367-9.251,11.577-11.767,18.589c-2.38,6.631-4.377,13.399-5.979,20.259
				c5.39-9.762,13.177-18.19,22.484-24.333c5.396-3.562,12.056-6.432,18.201-4.42c-5.157,2.182-10.988,5.151-12.083,10.643
				c-0.183,0.915-0.212,1.885,0.102,2.765c0.924,2.588,4.145,3.287,6.588,4.547c4.756,2.455,7.231,8.038,7.448,13.386
				c0.217,5.348-1.438,10.574-3.074,15.669c-1.431,4.458-2.863,8.916-4.294,13.374c-1.831,5.702-3.699,11.484-7.002,16.479
				c-3.303,4.995-8.282,9.189-14.188,10.177c-2.466,0.412-5.078,0.238-7.339-0.829c-1.792-0.846-3.282-2.202-4.822-3.449
				c-7.04-5.705-15.668-9.43-24.648-10.643c11.624,7.678,17.12,21.625,21.942,34.694c-2.198-3.852-5.421-7.113-9.245-9.358
				c-1.031-0.605-2.175-1.152-3.366-1.057c-3.152,0.253-4.154,4.274-6.061,6.797c-2.274,3.01-6.443,4.071-10.186,3.596
				c-3.743-0.475-7.184-2.232-10.536-3.961c-14.172-7.309-28.344-14.617-42.515-21.926l-3.04,9c0,0,33.862,26.987,85.738,36.554
				c0,0,33.707-26.635,45.642-50.24c11.935-23.605,30.493-71.987,30.493-71.987s-6.793-12.86-18.437-19.577
				c0,0-8.686-4.107-10.516-9.188c-1.831-5.08-18.163-13.849-18.163-13.849S310.546,242.647,298.933,240.295z"/>
		</g>
		<path style="fill:#999999;" d="M295.361,148.252c0,0,2.27-26.475-9.144-29.02c-11.414-2.546-17.815-12.983-17.815-12.983
			l-40.484,11.298l-6.283,24.34l4.042,12.327c0,0,0.843,11.424,1.029,17.079c0.186,5.655,0.018,10.041,4.287,16.86
			c4.268,6.819,8.254,13.673,17.504,19.598v15.592c0,0-5.716,16.69-2.56,26.932c0,0,1.889,1.992,7.116-1.013
			c5.227-3.005,27.549-17.919,35.342-33.498l2.42-39.611c0,0,6.426,0.989,9.2-4.859c4.064-5.73,3.901-12.417,2.328-17.856
			c-1.573-5.439-8.379-1.912-8.379-1.912L295.361,148.252z"/>
		<path style="fill:#737373;" d="M248.871,187.062c0,0,3.226-3.984,9.074-3.618c0,0,4.874-7.694,9.991-6.279
			c0,0,1.579,8.146-4.569,11.355C255.38,192.687,248.871,187.062,248.871,187.062z"/>
		<path style="fill:none;stroke:#263238;stroke-linecap:round;stroke-linejoin:round;stroke-miterlimit:10;" d="M233.827,114.185
			c0,0-9.682,12.725-9.129,26.004c0.553,13.279,2.49,22.684,1.937,32.92c-0.553,10.236,10.235,27.387,21.301,34.303
			c8.278,5.173,18.641,4.289,26.691-1.05c8.982-5.957,13.956-16.786,15.761-27.133c0.178-1.02,0.322-2.047,0.427-3.077"/>
		<path style="fill:none;stroke:#263238;stroke-linecap:round;stroke-linejoin:round;stroke-miterlimit:10;" d="M247.935,207.411
			c0,0,1.575,14.335,0,19.249c-1.727,5.387-3.815,17.937-1.999,23.613c1.816,5.676,35.874-18.164,42.458-34.511
			c0,0,0.904-31.768,3.175-39.715"/>
		<path style="fill:none;stroke:#263238;stroke-linecap:round;stroke-linejoin:round;stroke-miterlimit:10;" d="M247.034,186.711
			c0,0,15.49,4.376,21.824-11.606"/>
		<path style="fill:#263238;" d="M248.251,210.862c0,0,3.302,10.226,10.423,10.84c7.121,0.614,24.922-13.664,30.959-30.467v-8.416
			c0,0-5.016,21.956-19.645,26.02c-14.63,4.064-21.49-1.089-21.49-1.089L248.251,210.862z"/>
		<path style="fill:none;stroke:#263238;stroke-linecap:round;stroke-linejoin:round;stroke-miterlimit:10;" d="M267.937,177.164
			c-6.879-0.48-9.991,6.279-9.991,6.279c-5.864-0.71-9.074,3.618-9.074,3.618s4.879,5.021,12.69,2.299
			C269.372,186.639,267.937,177.164,267.937,177.164z"/>
		<path style="fill:none;stroke:#263238;stroke-linecap:round;stroke-linejoin:round;stroke-miterlimit:10;" d="M250.689,147.006
			c0.031,3.153,0,6.381-0.415,9.506c-0.376,2.831-1.68,5.535-2.771,8.196c-0.993,2.421-2.669,6.142-1.279,8.692
			c1.576,2.889,6.828,0,6.828,0"/>
		<path style="fill:none;stroke:#263238;stroke-linecap:round;stroke-linejoin:round;stroke-miterlimit:10;" d="M256.283,172.788
			c1.767,0.246,4.28,0.02,4.78-3.065"/>
		<path style="fill:none;stroke:#263238;stroke-width:2;stroke-linecap:round;stroke-linejoin:round;stroke-miterlimit:10;" d="
			M262.015,143.182c0,0,5.934-5.83,12.7,0"/>
		<path style="fill:none;stroke:#263238;stroke-width:2;stroke-linecap:round;stroke-linejoin:round;stroke-miterlimit:10;" d="
			M241.819,145.68c0,0-4.685-6.038-10.827,0"/>
		<path style="fill:none;stroke:#263238;stroke-linecap:round;stroke-linejoin:round;stroke-miterlimit:10;" d="M287.126,160.845
			c0,0,5.355-12.844,12.329-10.08c4.813,1.907,5.102,10.204,2.551,15.943c-2.551,5.74-3.826,11.691-12.33,8.396"/>
		<path style="fill:#263238;" d="M288.075,158.875c0,0-5.138-1.818-6.086-10.161c-0.948-8.343,4.171-16.685,2.275-22.753
			c-1.896-6.067-16.875-3.034-20.288-13.462c0,0-11.237,8.38-32.984,6.582c0,0-4.598,7.816-5.396,12.596
			c-0.774,4.632-1.312,14.513,0.081,22.535c0.045,0.256,0.091,0.511,0.139,0.763c1.566,8.148-6.208-11.08-6.018-19.289
			c0.19-8.209-4.74-18.637,1.706-26.411c6.447-7.774,30.118-12.324,34.778-15.927c4.66-3.602,13.761,6.067,24.189,9.67
			c10.428,3.603,19.15,7.853,17.823,22.697s0.078,16.838,0.134,24.658C298.429,150.375,293.592,148.558,288.075,158.875z"/>
		<path style="fill:#263238;" d="M268.365,154.033c0,2.02-0.77,3.658-1.721,3.658c-0.95,0-1.721-1.638-1.721-3.658
			c0-2.02,0.77-3.658,1.721-3.658C267.595,150.375,268.365,152.013,268.365,154.033z"/>
		<path style="fill:#263238;" d="M241.819,154.033c0,2.02-0.77,3.658-1.721,3.658c-0.95,0-1.721-1.638-1.721-3.658
			c0-2.02,0.77-3.658,1.721-3.658C241.049,150.375,241.819,152.013,241.819,154.033z"/>
		<path style="fill:none;stroke:#263238;stroke-linecap:round;stroke-linejoin:round;stroke-miterlimit:10;" d="M262.015,158.875
			c0,0,3.571,3.794,8.096,4.336"/>
		<path style="fill:none;stroke:#263238;stroke-linecap:round;stroke-linejoin:round;stroke-miterlimit:10;" d="M237.681,163.211
			c0,0,6.525-0.466,8.014-4.336"/>
		<path style="fill:none;stroke:#263238;stroke-linecap:round;stroke-linejoin:round;stroke-miterlimit:10;" d="M252.857,252.704
			c4.863-3.091,11.288-1.938,16.615,0.258c2.922,1.204,5.698,2.729,8.606,3.961c1.446,0.613,2.918,1.176,4.44,1.573
			c3.653,0.954,2.339-3.581,2.13-5.612c-0.299-2.904-0.513-5.821-0.861-8.719c-0.073-0.604-0.133-1.265,0.198-1.775
			c0.309-0.477,0.884-0.699,1.425-0.871c6.409-2.037,13.319-1.117,20.042-0.979c0.605,0.012,1.251,0.007,1.756-0.327
			c0.993-0.656,0.893-2.126,0.622-3.285c-2.314-9.882-10.464-19.709-19.32-24.648"/>
		<path style="fill:none;stroke:#263238;stroke-linecap:round;stroke-linejoin:round;stroke-miterlimit:10;" d="M248.499,213.902
			c-4.41,1.84-8.94,3.75-12.74,6.57c-1.37,1.01-2.65,2.14-3.79,3.42c-0.83,0.94-1.62,2.05-1.63,3.31c-0.01,1.19,0.67,2.18,1.59,2.97
			c0.66,0.56,1.44,1.02,2.2,1.38c1.84,0.87,3.95,1.72,4.78,3.57c0.17,0.39,0.28,0.83,0.2,1.25c-0.07,0.39-0.3,0.73-0.56,1.04
			c-1.52,1.85-4.2,3.28-4.03,5.67c0.13,1.85,1.98,3.04,3.66,3.82c1.68,0.79,3.6,1.67,4.17,3.44"/>
		<path style="fill:none;stroke:#FFFFFF;stroke-linecap:round;stroke-linejoin:round;stroke-miterlimit:10;" d="M222.395,120.132
			c0.644-4.022,4.826-6.581,8.846-7.236c4.02-0.654,8.145,0.029,12.201-0.345c6.759-0.624,13.17-4.349,17.059-9.913"/>
		<path style="fill:none;stroke:#FFFFFF;stroke-linecap:round;stroke-linejoin:round;stroke-miterlimit:10;" d="M226.943,108.886
			c7.259-4.286,17.46,0.172,24.54-4.403c2.078-1.343,3.637-3.334,5.155-5.287"/>
		<path style="fill:none;stroke:#263238;stroke-linecap:round;stroke-linejoin:round;stroke-miterlimit:10;" d="M319.549,273.022
			c-26.035,5.185-35.696,24.321-35.696,24.321l-30.801,48.512"/>
		<path style="fill:none;stroke:#263238;stroke-linecap:round;stroke-linejoin:round;stroke-miterlimit:10;" d="M297.569,267.765
			c2.178-1.992,4.588-3.688,7.25-4.944"/>
		<path style="fill:none;stroke:#263238;stroke-linecap:round;stroke-linejoin:round;stroke-miterlimit:10;" d="M279.387,304.379
			c0,0,3.286-17.515,12.708-30.424"/>
		<path style="fill:none;stroke:#263238;stroke-linecap:round;stroke-linejoin:round;stroke-miterlimit:10;" d="M199.226,341.757
			c0,0-1.349-53.668-5.98-61.863"/>
		<path style="fill:none;stroke:#263238;stroke-linecap:round;stroke-linejoin:round;stroke-miterlimit:10;" d="M307.831,236.928
			c0,0,14.996,8.984,21.656,17.46c6.66,8.476,22.402,14.078,26.035,25.505c0,0-20.735,65.314-42.457,88.927
			s-33.678,33.3-33.678,33.3s-52.247-9.082-86.141-37.539l12.122-27.851c0,0,34.172,4.322,47.685,9.124
			c13.513,4.802,26.334,33.864,26.334,33.864"/>
		<path style="fill:none;stroke:#263238;stroke-linecap:round;stroke-linejoin:round;stroke-miterlimit:10;" d="M253.053,345.855
			c0,0,23.921,4.641,31.687,15.539"/>
		<polyline style="fill:none;stroke:#263238;stroke-linecap:round;stroke-linejoin:round;stroke-miterlimit:10;" points="
			321.878,357.052 304.818,432.099 200.372,432.099 196.809,405.868 		"/>
		<path style="fill:none;stroke:#263238;stroke-linecap:round;stroke-linejoin:round;stroke-miterlimit:10;" d="M245.349,398.442
			c-5.77,11.82-13.38,9.21-13.38,9.21c-58.85,2.23-80.53-19.76-80.53-19.76s-2.98-30.93,8.57-72.67
			c11.55-41.75,33.24-78.29,33.24-78.29c9.61-6.39,31.05-11.38,37.1-12.7c1.03-0.22,1.62-0.34,1.62-0.34"/>
		<path style="fill:none;stroke:#263238;stroke-linecap:round;stroke-linejoin:round;stroke-miterlimit:10;" d="M231.973,407.649
			c0,0-3.117-0.514-2.32-21.128"/>
		<path style="fill:none;stroke:#263238;stroke-linecap:round;stroke-linejoin:round;stroke-miterlimit:10;" d="M194.84,365.896
			c0,0-14.704-5.18-32.912,7.426"/>
		<path style="fill:none;stroke:#263238;stroke-linecap:round;stroke-linejoin:round;stroke-miterlimit:10;" d="M165.233,361.394
			c0,0,19.259-5.733,28.013,3.448"/>
		<path style="fill:#999999;stroke:#263238;stroke-miterlimit:10;" d="M191.153,364.315l2.495,1.252l9.518-23.778
			c0,0-9.856-1.612-25.481,17.837C177.686,359.626,184.355,359.254,191.153,364.315z"/>
		<path style="fill:#999999;stroke:#263238;stroke-miterlimit:10;" d="M229.653,386.521l-0.045,10.564
			c0,0,13.476,4.003,23.445-1.745L229.653,386.521z"/>
		<g>
			<g>
				<path style="fill:#263238;" d="M302.659,240.452c0.01,0.19-0.01,0.39-0.06,0.58c-0.42,1.65-10.69,40.42-43.56,57.67
					c-0.3,0.16-0.61,0.23-0.93,0.23c-0.72,0-1.41-0.39-1.77-1.07c-0.51-0.98-0.14-2.19,0.84-2.7
					c29.97-15.73,40.57-51.58,41.49-54.88L302.659,240.452z"/>
			</g>
			<g>
				<path style="fill:#263238;" d="M231.929,230.172c-3.36,7.43-7.75,20.3-8.25,37.6c-0.02,1.05-0.04,2.12-0.04,3.21
					c0,0.27,0,0.54,0.01,0.81c-0.3,0.01-0.59,0.04-0.89,0.09c-1.08,0.16-2.13,0.49-3.11,0.97c-0.03-1.47-0.03-2.9,0-4.31
					c0.43-22.44,7.13-37.71,10.7-44.31c1.03-0.22,1.62-0.34,1.62-0.34c-0.83,0.94-1.62,2.05-1.63,3.31
					C230.329,228.392,231.009,229.382,231.929,230.172z"/>
			</g>
			<g>
				<path style="fill:#FFFFFF;stroke:#263238;stroke-linecap:round;stroke-linejoin:round;stroke-miterlimit:10;" d="
					M271.306,289.683c2.348,3.252,0.427,8.65-4.292,12.057c-4.718,3.407-10.447,3.534-12.795,0.282
					c-2.348-3.252-0.427-8.65,4.292-12.057C263.229,286.557,268.958,286.431,271.306,289.683z"/>
				<path style="fill:#FFFFFF;stroke:#263238;stroke-linecap:round;stroke-linejoin:round;stroke-miterlimit:10;" d="
					M265.49,287.755c1.66,2.299,0.302,6.116-3.034,8.525c-3.336,2.409-7.387,2.499-9.047,0.199c-1.66-2.299-0.302-6.116,3.035-8.525
					C259.78,285.545,263.83,285.456,265.49,287.755z"/>
			</g>
			<g>
				<g>
					<path style="fill:#263238;stroke:#263238;stroke-miterlimit:10;" d="M239.059,328.342c-0.89,0.66-2.14,0.46-2.79-0.42
						c-0.65-0.89-0.47-2.12,0.4-2.78c0.17-0.14,6.88-5.85,3.94-25.08c-0.25-1.63-0.57-3.37-0.97-5.2
						c-1.27-5.83-3.23-13.21-7.24-18.63c-2.29-3.1-5.37-4.65-8.75-4.44c-0.3,0.01-0.59,0.04-0.89,0.09
						c-1.08,0.16-2.13,0.49-3.11,0.97c-2.84,1.4-5.14,4.03-6.32,7.38l-0.36,1.04c-1.51,4.28-4.01,11.36-5.55,18.79
						c-1.6,7.85-2.14,16.08,0.7,21.83c1.61,3.25,4.15,5.4,7.76,6.57c1.05,0.34,1.62,1.47,1.28,2.52c-0.27,0.84-1.06,1.38-1.9,1.38
						c-0.2,0-0.41-0.03-0.62-0.1c-4.62-1.5-8.02-4.39-10.1-8.6c-3.2-6.47-2.78-15.28-1.16-23.6c1.54-8.01,4.21-15.57,5.82-20.12
						l0.36-1.03c1.77-5.03,5.51-8.82,10.09-10.37c0.81-0.28,1.65-0.49,2.51-0.62c0.51-0.07,1.02-0.12,1.52-0.15
						c4.62-0.18,8.91,1.98,11.94,6.09c4.46,6.03,6.58,13.93,7.93,20.15c0.47,2.14,0.83,4.15,1.1,6.05
						C247.779,321.642,239.449,328.062,239.059,328.342z"/>
				</g>
				<path style="fill:#263238;stroke:#263238;stroke-miterlimit:10;" d="M213.831,331.98c0,0,7.25,2.984,9.084,0
					c1.834-2.984,0.359-4.413-2.153-4.652c-2.511-0.239-7.517,0-7.517,0L213.831,331.98z"/>
				<path style="fill:#FFFFFF;stroke:#263238;stroke-linecap:round;stroke-linejoin:round;stroke-miterlimit:10;" d="
					M217.157,330.982c-0.27,0.84-1.06,1.38-1.9,1.38c-0.2,0-0.41-0.03-0.62-0.1c-4.62-1.5-8.02-4.39-10.1-8.6
					c-3.2-6.47-2.78-15.28-1.16-23.6h4.04c-1.6,7.85-2.14,16.08,0.7,21.83c1.61,3.25,4.15,5.4,7.76,6.57
					C216.927,328.802,217.497,329.931,217.157,330.982z"/>
				<path style="fill:#263238;stroke:#263238;stroke-miterlimit:10;" d="M232.383,326.167c-0.568,0.743-0.941,1.696-0.757,2.613
					c0.28,1.395,1.824,2.279,3.243,2.177c1.419-0.102,2.678-0.98,3.637-2.03c1.023-1.121,4.469-8.443,1.269-7.191
					C237.444,322.647,233.935,324.137,232.383,326.167z"/>
				<path style="fill:#FFFFFF;stroke:#263238;stroke-linecap:round;stroke-linejoin:round;stroke-miterlimit:10;" d="
					M239.057,328.341c-0.89,0.66-2.14,0.46-2.79-0.42c-0.65-0.89-0.47-2.12,0.4-2.78c0.17-0.14,6.88-5.85,3.94-25.08h4.04
					C247.777,321.641,239.447,328.061,239.057,328.341z"/>
			</g>
		</g>
		<g>
			<path style="opacity:0.2;fill:#FFFFFF;" d="M257.002,151.587c0,0,12.591-6.536,24.153,0c0,0,0.194,9.651-4.172,13.624
				c-1.548,1.409-8.655,1.652-11.34,1.409C254.721,165.628,257.002,151.587,257.002,151.587z"/>
			<path style="opacity:0.2;fill:#FFFFFF;" d="M249.104,151.587c0,0-12.591-6.536-24.154,0c0,0-0.194,9.651,4.173,13.624
				c1.548,1.409,8.655,1.652,11.34,1.409C251.384,165.628,249.104,151.587,249.104,151.587z"/>
			<path style="fill:none;stroke:#263238;stroke-miterlimit:10;" d="M257.002,151.587c0,0,12.591-6.536,24.153,0
				c0,0,0.194,9.651-4.172,13.624c-1.548,1.409-8.655,1.652-11.34,1.409C254.721,165.628,257.002,151.587,257.002,151.587z"/>
			<path style="fill:none;stroke:#263238;stroke-miterlimit:10;" d="M249.104,151.587c0,0-12.591-6.536-24.154,0
				c0,0-0.194,9.651,4.173,13.624c1.548,1.409,8.655,1.652,11.34,1.409C251.384,165.628,249.104,151.587,249.104,151.587z"/>
			<path style="fill:none;stroke:#263238;stroke-miterlimit:10;" d="M249.104,151.587c0,0,2.82-2.07,7.899,0"/>
			<line style="fill:none;stroke:#263238;stroke-miterlimit:10;" x1="281.156" y1="151.587" x2="286.417" y2="154.033"/>
		</g>
	</g>
</g>
<g id="Table">
	<g>
		<polyline style="fill:#FFFFFF;stroke:#263238;stroke-linecap:round;stroke-linejoin:round;stroke-miterlimit:10;" points="
			79.822,458.719 116.832,423.763 410.568,423.763 432.813,458.719 79.822,458.719 		"/>
		
			<rect x="79.822" y="458.719" style="fill:#263238;stroke:#263238;stroke-linecap:round;stroke-linejoin:round;stroke-miterlimit:10;" width="352.991" height="9.409"/>
	</g>
</g>
<g id="Notebook">
	<g>
		<polygon style="fill:#FFFFFF;stroke:#263238;stroke-miterlimit:10;" points="116.832,450.083 116.832,442.83 174.827,442.83 
			174.827,450.083 163.64,450.083 		"/>
		<polygon style="fill:#FFFFFF;stroke:#263238;stroke-linecap:round;stroke-linejoin:round;stroke-miterlimit:10;" points="
			116.832,442.83 151.094,419.853 196.809,420.926 174.827,442.83 		"/>
		<polygon style="fill:#FFFFFF;stroke:#263238;stroke-linecap:round;stroke-linejoin:round;stroke-miterlimit:10;" points="
			174.827,450.083 196.809,428.058 196.809,420.926 174.827,442.83 		"/>
		<path style="fill:none;stroke:#263238;stroke-width:2;stroke-linecap:round;stroke-linejoin:round;stroke-miterlimit:10;" d="
			M173.262,441.01c0,0-4.63,0.92-4.63,4.934c0,4.01,3.97,5.185,3.97,5.185"/>
		<path style="fill:none;stroke:#263238;stroke-width:2;stroke-linecap:round;stroke-linejoin:round;stroke-miterlimit:10;" d="
			M168.632,441.01c0,0-4.63,0.92-4.63,4.934c0,4.01,3.97,5.185,3.97,5.185"/>
		<path style="fill:none;stroke:#263238;stroke-width:2;stroke-linecap:round;stroke-linejoin:round;stroke-miterlimit:10;" d="
			M164.003,441.01c0,0-4.63,0.92-4.63,4.934c0,4.01,3.97,5.185,3.97,5.185"/>
		<path style="fill:none;stroke:#263238;stroke-width:2;stroke-linecap:round;stroke-linejoin:round;stroke-miterlimit:10;" d="
			M159.373,441.01c0,0-4.63,0.92-4.63,4.934c0,4.01,3.97,5.185,3.97,5.185"/>
		<path style="fill:none;stroke:#263238;stroke-width:2;stroke-linecap:round;stroke-linejoin:round;stroke-miterlimit:10;" d="
			M154.743,441.01c0,0-4.63,0.92-4.63,4.934c0,4.01,3.97,5.185,3.97,5.185"/>
		<path style="fill:none;stroke:#263238;stroke-width:2;stroke-linecap:round;stroke-linejoin:round;stroke-miterlimit:10;" d="
			M150.114,441.01c0,0-4.63,0.92-4.63,4.934c0,4.01,3.97,5.185,3.97,5.185"/>
		<path style="fill:none;stroke:#263238;stroke-width:2;stroke-linecap:round;stroke-linejoin:round;stroke-miterlimit:10;" d="
			M145.484,441.01c0,0-4.63,0.92-4.63,4.934c0,4.01,3.97,5.185,3.97,5.185"/>
		<path style="fill:none;stroke:#263238;stroke-width:2;stroke-linecap:round;stroke-linejoin:round;stroke-miterlimit:10;" d="
			M140.854,441.01c0,0-4.63,0.92-4.63,4.934c0,4.01,3.97,5.185,3.97,5.185"/>
		<path style="fill:none;stroke:#263238;stroke-width:2;stroke-linecap:round;stroke-linejoin:round;stroke-miterlimit:10;" d="
			M135.646,441.01c0,0-4.63,0.92-4.63,4.934c0,4.01,3.97,5.185,3.97,5.185"/>
		<path style="fill:none;stroke:#263238;stroke-width:2;stroke-linecap:round;stroke-linejoin:round;stroke-miterlimit:10;" d="
			M130.438,441.01c0,0-4.63,0.92-4.63,4.934c0,4.01,3.97,5.185,3.97,5.185"/>
		<path style="fill:none;stroke:#263238;stroke-width:2;stroke-linecap:round;stroke-linejoin:round;stroke-miterlimit:10;" d="
			M124.651,441.01c0,0-4.63,0.92-4.63,4.934c0,4.01,3.97,5.185,3.97,5.185"/>
		<path style="fill:none;stroke:#263238;stroke-width:0.75;stroke-linecap:round;stroke-linejoin:round;stroke-miterlimit:10;" d="
			M154.007,425.48c-3.169,1.741-5.742,4.543-7.207,7.848c4.184-1.291,7.532-4.379,10.724-7.375c-1.156,2.86-2.311,5.72-3.467,8.58
			c3.179-0.233,6.197-2.086,7.843-4.816c-1.138,0.406-1.679,1.962-1.038,2.986c2.899-0.418,4.745-3.226,6.209-5.763
			c0.265,1.413,0.37,2.855,0.313,4.291c2.409,0.35,4.911,0.03,7.155-0.913"/>
	</g>
</g>
<g id="Box">
	<g>
		
			<rect x="307.805" y="388.74" style="fill:#FFFFFF;stroke:#263238;stroke-linecap:round;stroke-linejoin:round;stroke-miterlimit:10;" width="100.808" height="55.345"/>
		<polygon style="fill:#FFFFFF;stroke:#263238;stroke-linecap:round;stroke-linejoin:round;stroke-miterlimit:10;" points="
			307.409,444.085 291.201,428.667 291.201,373.322 307.409,388.74 		"/>
		<polygon style="fill:#FFFFFF;stroke:#263238;stroke-linecap:round;stroke-linejoin:round;stroke-miterlimit:10;" points="
			408.612,388.74 392.404,373.322 291.596,373.322 307.805,388.74 		"/>
		<polygon style="fill:#92E3A9;stroke:#263238;stroke-miterlimit:10;" points="371.538,409.499 362.628,409.499 362.628,400.183 
			350.072,400.183 350.072,409.499 340.351,409.499 340.351,422.055 350.072,422.055 350.072,431.37 362.628,431.37 
			362.628,422.055 371.538,422.055 		"/>
		
			<line style="fill:#FFFFFF;stroke:#263238;stroke-linecap:round;stroke-linejoin:round;stroke-miterlimit:10;" x1="357.328" y1="388.74" x2="341.12" y2="373.322"/>
	</g>
</g>
<g id="Medicine">
	<g>
		<g>
			
				<ellipse transform="matrix(0.7071 -0.7071 0.7071 0.7071 -57.4656 125.666)" style="fill:#FFFFFF;stroke:#263238;stroke-linecap:round;stroke-linejoin:round;stroke-miterlimit:10;" cx="122.96" cy="132.2" rx="30.114" ry="30.114"/>
			<path style="fill:#FFFFFF;" d="M147.967,127.589c0,4.02-2.54,7.78-6.55,9.13l-13.44,4.53l-16.37,5.53
				c-5.01,1.69-10.5-1.02-12.19-6.04c-0.34-1.01-0.5-2.04-0.5-3.05c0-4.01,2.54-7.78,6.54-9.14l14.87-5.01l14.94-5.04
				c5.02-1.7,10.5,1.02,12.19,6.03C147.797,125.539,147.967,126.579,147.967,127.589z"/>
			<path style="fill:#92E3A9;" d="M147.967,127.589c0,4.02-2.54,7.78-6.55,9.13l-13.44,4.53c-0.58-9.33-5.28-15.29-7.65-17.71
				l14.94-5.04c5.02-1.7,10.5,1.02,12.19,6.03C147.797,125.539,147.967,126.579,147.967,127.589z"/>
			<path style="fill:none;stroke:#263238;stroke-linecap:round;stroke-linejoin:round;stroke-miterlimit:10;" d="M147.967,127.589
				c0,4.02-2.54,7.78-6.55,9.13l-13.44,4.53l-16.37,5.53c-5.01,1.69-10.5-1.02-12.19-6.04c-0.34-1.01-0.5-2.04-0.5-3.05
				c0-4.01,2.54-7.78,6.54-9.14l14.87-5.01l14.94-5.04c5.02-1.7,10.5,1.02,12.19,6.03
				C147.797,125.539,147.967,126.579,147.967,127.589z"/>
			<path style="fill:none;stroke:#263238;stroke-linecap:round;stroke-linejoin:round;stroke-miterlimit:10;" d="M127.977,141.249
				c0,0,0.144-9.604-7.65-17.71"/>
			<path style="fill:none;stroke:#FFFFFF;stroke-linecap:round;stroke-linejoin:round;stroke-miterlimit:10;" d="M144.783,123.95
				c0.561,0.928,0.923,2.083,0.921,3.516"/>
			<path style="fill:none;stroke:#FFFFFF;stroke-linecap:round;stroke-linejoin:round;stroke-miterlimit:10;" d="M124.152,125.01
				l11.967-3.951c2.194-0.724,4.624-0.491,6.536,0.733"/>
		</g>
		<g>
			
				<ellipse transform="matrix(0.9209 -0.3898 0.3898 0.9209 0.1848 128.1376)" style="fill:#FFFFFF;stroke:#263238;stroke-linecap:round;stroke-linejoin:round;stroke-miterlimit:10;" cx="315.81" cy="63.614" rx="30.114" ry="30.114"/>
			<g>
				<path style="fill:#92E3A9;" d="M326.188,76.23l-26.258-8.787c-4.523-1.513-6.985-6.452-5.471-10.975v0
					c1.513-4.523,6.452-6.985,10.975-5.471l26.258,8.787c4.523,1.513,6.985,6.452,5.471,10.975l0,0
					C335.649,75.281,330.711,77.743,326.188,76.23z"/>
				
					<line style="fill:none;stroke:#263238;stroke-linecap:round;stroke-linejoin:round;stroke-miterlimit:10;" x1="306.952" y1="66.737" x2="311.345" y2="56.23"/>
				
					<line style="fill:none;stroke:#263238;stroke-linecap:round;stroke-linejoin:round;stroke-miterlimit:10;" x1="321.423" y1="71.55" x2="325.805" y2="61.071"/>
				<circle style="fill:#263238;" cx="310.581" cy="66.473" r="0.892"/>
				<path style="fill:#263238;" d="M319.334,69.093c0,0.493-0.399,0.892-0.892,0.892c-0.493,0-0.892-0.399-0.892-0.892
					c0-0.493,0.399-0.892,0.892-0.892C318.934,68.202,319.334,68.601,319.334,69.093z"/>
				<circle style="fill:#263238;" cx="314.027" cy="58.551" r="0.892"/>
				<path style="fill:#263238;" d="M322.653,61.095c0,0.493-0.399,0.892-0.892,0.892c-0.492,0-0.892-0.399-0.892-0.892
					s0.399-0.892,0.892-0.892C322.254,60.203,322.653,60.602,322.653,61.095z"/>
				<path style="fill:none;stroke:#263238;stroke-linecap:round;stroke-linejoin:round;stroke-miterlimit:10;" d="M326.188,76.23
					l-26.258-8.787c-4.523-1.513-6.985-6.452-5.471-10.975v0c1.513-4.523,6.452-6.985,10.975-5.471l26.258,8.787
					c4.523,1.513,6.985,6.452,5.471,10.975l0,0C335.649,75.281,330.711,77.743,326.188,76.23z"/>
			</g>
		</g>
		<g>
			
				<circle style="fill:#FFFFFF;stroke:#263238;stroke-linecap:round;stroke-linejoin:round;stroke-miterlimit:10;" cx="202.139" cy="61.987" r="30.114"/>
			<g>
				<path style="fill:#FFFFFF;stroke:#263238;stroke-linecap:round;stroke-linejoin:round;stroke-miterlimit:10;" d="M219.385,62.76
					v12.342c0,3.132-1.991,5.671-4.448,5.671H189.34c-2.457,0-4.447-2.538-4.447-5.671V62.76c0-3.132,1.991-5.671,4.447-5.671h4.21
					v-7.161h17.032v7.161h4.356C217.394,57.09,219.385,59.628,219.385,62.76z"/>
				<rect x="184.893" y="64.184" style="fill:#92E3A9;stroke:#263238;stroke-miterlimit:10;" width="34.493" height="7.653"/>
				<g>
					<path style="fill:#92E3A9;stroke:#263238;stroke-miterlimit:10;" d="M213.922,52.518h-23.409v-5.586
						c0-2.973,2.41-5.383,5.383-5.383h12.643c2.973,0,5.383,2.41,5.383,5.383V52.518z"/>
					
						<line style="fill:none;stroke:#263238;stroke-linecap:round;stroke-linejoin:round;stroke-miterlimit:10;" x1="194.602" y1="41.885" x2="194.602" y2="52.518"/>
					
						<line style="fill:none;stroke:#263238;stroke-linecap:round;stroke-linejoin:round;stroke-miterlimit:10;" x1="200.131" y1="41.549" x2="200.131" y2="52.518"/>
					
						<line style="fill:none;stroke:#263238;stroke-linecap:round;stroke-linejoin:round;stroke-miterlimit:10;" x1="205.66" y1="41.549" x2="205.66" y2="52.518"/>
					
						<line style="fill:none;stroke:#263238;stroke-linecap:round;stroke-linejoin:round;stroke-miterlimit:10;" x1="211.189" y1="42.168" x2="211.189" y2="52.518"/>
				</g>
			</g>
		</g>
		<g>
			<g>
				
					<ellipse transform="matrix(0.1618 -0.9868 0.9868 0.1618 -138.9292 279.8856)" style="fill:#FFFFFF;stroke:#263238;stroke-linecap:round;stroke-linejoin:round;stroke-miterlimit:10;" cx="95.285" cy="221.721" rx="30.114" ry="30.114"/>
				<g>
					
						<ellipse transform="matrix(0.4275 -0.904 0.904 0.4275 -146.4894 212.5235)" style="fill:#92E3A9;stroke:#263238;stroke-linecap:round;stroke-linejoin:round;stroke-miterlimit:10;" cx="94.55" cy="221.92" rx="13.893" ry="17.709"/>
					
						<ellipse transform="matrix(0.4275 -0.904 0.904 0.4275 -143.721 212.156)" style="fill:#92E3A9;stroke:#263238;stroke-linecap:round;stroke-linejoin:round;stroke-miterlimit:10;" cx="95.644" cy="219.55" rx="13.033" ry="17.709"/>
					
						<line style="fill:#FFFFFF;stroke:#263238;stroke-linecap:round;stroke-linejoin:round;stroke-miterlimit:10;" x1="100.75" y1="210.655" x2="89.821" y2="226.035"/>
				</g>
			</g>
			<path style="fill:none;stroke:#FFFFFF;stroke-linecap:round;stroke-linejoin:round;stroke-miterlimit:10;" d="M94.174,208.172
				c2.459,0.317,4.307,0.968,4.307,0.968"/>
			<path style="fill:none;stroke:#FFFFFF;stroke-linecap:round;stroke-linejoin:round;stroke-miterlimit:10;" d="M84.462,222.644
				c0,0-5.587-6.111-0.129-11.989c1.262-1.359,2.915-2.081,4.643-2.414"/>
		</g>
		<g>
			
				<ellipse transform="matrix(0.1617 -0.9868 0.9868 0.1617 126.9262 592.8586)" style="fill:#FFFFFF;stroke:#263238;stroke-linecap:round;stroke-linejoin:round;stroke-miterlimit:10;" cx="412.417" cy="221.721" rx="30.114" ry="30.114"/>
			<g>
				<path style="fill:#92E3A9;stroke:#263238;stroke-miterlimit:10;" d="M429.728,224.762c-0.23,0.33-0.46,0.67-0.7,1
					c-4.51,6.25-11.46,12.08-16.61,13.23v-0.08c-5.01-1.12-11.73-6.67-16.24-12.73c-0.25-0.33-0.49-0.67-0.72-1
					c-4.34-6.22-6.17-12.75-1.34-15.45c9.82-5.48,18.3,6.27,18.3,6.27s8.5-11.66,18.3-6.19
					C435.418,212.432,433.809,218.692,429.728,224.762z"/>
				<g>
					<path style="fill:#FFFFFF;" d="M429.728,224.762c-0.23,0.33-0.46,0.67-0.7,1h-2.48l-2.84,3.75l-1.93-11.12l-2.98,7.56h-7.09
						l-3.65,6.09l-2.8-12.25l-3.61,6.39h-5.47c-0.25-0.33-0.49-0.67-0.72-1h5.61l4.59-8.13l2.82,12.35l2.67-4.45h6.97l4.04-10.24
						l2.14,12.36l1.75-2.31H429.728z"/>
				</g>
			</g>
		</g>
		<g>
			
				<circle style="fill:#FFFFFF;stroke:#263238;stroke-linecap:round;stroke-linejoin:round;stroke-miterlimit:10;" cx="383.464" cy="132.544" r="30.114"/>
			<g>
				<g>
					<path style="fill:#FFFFFF;stroke:#263238;stroke-linecap:round;stroke-linejoin:round;stroke-miterlimit:10;" d="
						M381.195,118.618c0.292,0.652-1.515,2.095-4.036,3.224c-2.521,1.129-4.801,1.515-5.093,0.863
						c-0.292-0.652,1.515-2.095,4.036-3.224C378.624,118.352,380.904,117.965,381.195,118.618z"/>
					<polygon style="fill:#FFFFFF;stroke:#263238;stroke-linecap:round;stroke-linejoin:round;stroke-miterlimit:10;" points="
						394.75,146.546 385.736,150.913 377.664,134.27 372.083,122.765 381.089,118.398 386.533,129.623 					"/>
					<path style="fill:#92E3A9;stroke:#263238;stroke-linecap:round;stroke-linejoin:round;stroke-miterlimit:10;" d="
						M373.749,126.2c-0.021-0.044,3.914-1.814,3.914-1.814"/>
					<path style="fill:#92E3A9;stroke:#263238;stroke-linecap:round;stroke-linejoin:round;stroke-miterlimit:10;" d="
						M375.45,129.821c-0.021-0.044,3.914-1.814,3.914-1.814"/>
					<polygon style="fill:#FFFFFF;stroke:#263238;stroke-linecap:round;stroke-linejoin:round;stroke-miterlimit:10;" points="
						389.195,149.237 393.839,155.342 391.517,148.113 					"/>
					<path style="fill:#92E3A9;stroke:#263238;stroke-miterlimit:10;" d="M394.75,146.546L394.75,146.546
						c-2.107,2.118-4.802,3.553-7.735,4.119l-1.28,0.247l-8.072-16.643l8.869-4.648L394.75,146.546z"/>
					
						<line style="fill:#92E3A9;stroke:#263238;stroke-linecap:round;stroke-linejoin:round;stroke-miterlimit:10;" x1="379.365" y1="137.434" x2="383.037" y2="135.732"/>
					<path style="fill:#92E3A9;stroke:#263238;stroke-linecap:round;stroke-linejoin:round;stroke-miterlimit:10;" d="
						M381.38,141.305c-0.021-0.044,3.614-1.657,3.614-1.657"/>
				</g>
				<polygon style="fill:#FFFFFF;stroke:#263238;stroke-linecap:round;stroke-linejoin:round;stroke-miterlimit:10;" points="
					375.205,121.251 372.354,114.842 374.588,113.573 377.664,120.059 				"/>
				<g>
					<path style="fill:#FFFFFF;stroke:#263238;stroke-linecap:round;stroke-linejoin:round;stroke-miterlimit:10;" d="
						M380.087,112.793l-0.675-1.507l-11.999,5.372l0.675,1.507c0.282,0.63,3.197-0.062,6.51-1.545
						C377.911,115.136,380.369,113.423,380.087,112.793z"/>
					<path style="fill:#FFFFFF;stroke:#263238;stroke-linecap:round;stroke-linejoin:round;stroke-miterlimit:10;" d="
						M379.412,111.285c-0.282-0.63-3.197,0.062-6.51,1.545c-3.314,1.483-5.771,3.197-5.489,3.827c0.282,0.63,3.197-0.062,6.51-1.545
						C377.236,113.629,379.694,111.916,379.412,111.285z"/>
				</g>
			</g>
		</g>
	</g>
</g>
</svg>
